#N canvas 554 104 610 482 10;
#X text 10 38 for use with pix_freenect or pix_openni;
#X obj 319 293 gemwin;
#X msg 274 247 destroy;
#X msg 319 223 dimen 640 240 \, create \, 1;
#X msg 360 263 color 1 0 0;
#X msg 381 289 dimen 1280 480 \, create \, 1;
#X text 10 7 extract part of image in certain distance (distance coded
into r and g color channel);
#N canvas 119 645 680 300 test 1;
#X obj 110 55 gemhead;
#X obj 110 212 pix_texture;
#X obj 110 234 rectangle 4 3;
#X msg 172 71 fill 1 \, bang;
#X obj 110 107 pix_set 10 3;
#X msg 235 25 0 0.1 0.2 0.3 0.4 0.5 0.6 0.7 0.8 0.9 1 1.1 1.2 1.3 1.4
1.5 1.6 1.7 1.8 1 2 2.1 2.2 2.3 2.4 2.5 2.6 2.7 2.8 2.9 \, bang;
#X msg 279 79 GREY;
#X obj 110 172 pix_depth_subtract;
#X msg 133 148 setref;
#X msg 191 140 offset 100 100;
#X connect 0 0 4 0;
#X connect 1 0 2 0;
#X connect 3 0 4 0;
#X connect 4 0 7 0;
#X connect 5 0 4 0;
#X connect 6 0 4 0;
#X connect 7 0 1 0;
#X connect 8 0 7 0;
#X connect 9 0 7 0;
#X restore 445 416 pd test;
#X connect 2 0 1 0;
#X connect 3 0 1 0;
#X connect 4 0 1 0;
#X connect 5 0 1 0;
